<svg width="91" height="79" viewBox="0 0 91 79" fill="none" xmlns="http://www.w3.org/2000/svg">
<path d="M51.981 75.5384H48.4543L47.6877 78H45.8477L49.3743 68.1538H51.2143L54.741 78H52.901L51.981 75.5384ZM50.141 69.8461C50.141 69.8461 49.9877 70.7692 49.681 71.3846L48.761 74H51.3677L50.4477 71.3846C50.4477 70.923 50.141 69.8461 50.141 69.8461Z" fill="white"/>
<path d="M57.1924 68.1538H60.4124C61.4857 68.1538 61.9457 68.3077 62.4057 68.4615C63.3257 68.923 63.9391 69.8461 63.9391 71.0769C63.9391 72.3077 63.3257 73.3846 62.2524 73.8461C62.2524 73.8461 62.4057 74 62.5591 74.3077L64.5524 78H62.5591L60.5657 74.3077H58.8791V78H57.0391V68.1538H57.1924ZM60.5657 72.7692C61.4857 72.7692 62.0991 72.1538 62.0991 71.2307C62.0991 70.3077 61.6391 69.6923 60.2591 69.6923H58.8791V72.7692H60.5657Z" fill="white"/>
<path d="M67.7734 68.1538H71.1468C74.2134 68.1538 76.2068 70 76.2068 73.0769C76.2068 76.1538 74.2134 78 71.1468 78H67.7734V68.1538ZM70.9934 76.4615C72.9868 76.4615 74.2134 75.2307 74.2134 73.0769C74.2134 70.923 72.8334 69.6923 70.9934 69.6923H69.4601V76.4615H70.9934Z" fill="white"/>
<path fill-rule="evenodd" clip-rule="evenodd" d="M79.2716 75.5385C79.2716 75.5385 80.3449 76.6154 81.7249 76.6154C82.4916 76.6154 83.1049 76.1539 83.1049 75.3846C83.1049 73.6923 78.5049 74 78.5049 70.9231C78.5049 69.2308 79.8849 68 81.8782 68C83.8716 68 84.7916 69.0769 84.7916 69.0769L84.0249 70.6154C84.0249 70.6154 83.1049 69.6923 81.8782 69.6923C81.1116 69.6923 80.3449 70.1539 80.3449 70.9231C80.3449 72.6154 84.9449 72.3077 84.9449 75.3846C84.9449 76.9231 83.7182 78.3077 81.7249 78.3077C79.5782 78.3077 78.3516 76.9231 78.3516 76.9231L79.2716 75.5385Z" fill="white"/>
<path fill-rule="evenodd" clip-rule="evenodd" d="M31.741 68.1538L30.0544 74.923C29.901 75.5384 29.901 76 29.901 76C29.901 76 29.901 75.5384 29.7477 74.923L28.061 68.1538H26.5277L24.6877 74.923C24.5344 75.5384 24.5344 76 24.5344 76C24.5344 76 24.5344 75.5384 24.381 74.923L23.1544 69.8461L22.2344 73.5384L23.3077 78H25.301L26.8344 72.1538C26.9877 71.5384 27.141 70.923 27.141 70.923C27.141 70.923 27.2944 71.5384 27.4477 72.1538L28.981 78H30.9744L33.581 68.1538H31.741Z" fill="white"/>
<path fill-rule="evenodd" clip-rule="evenodd" d="M42.7791 68.1538L41.0924 74.923C41.0924 75.5384 41.0924 76 41.0924 76C41.0924 76 41.0924 75.5384 40.9391 74.923L39.2524 68.1538H37.7191L35.8791 74.923C35.7258 75.5384 35.7258 76 35.7258 76C35.7258 76 35.7258 75.5384 35.5724 74.923L34.3458 69.8461L33.4258 73.6923L34.4991 78.1538H36.4924L38.0258 72.3077C38.1791 71.6923 38.3324 71.0769 38.3324 71.0769C38.3324 71.0769 38.4858 71.6923 38.6391 72.3077L40.1724 78.1538H42.1658L44.7724 68.3077H42.7791V68.1538Z" fill="white"/>
<path d="M6.13333 75.5384H2.76L1.84 78H0L3.52667 68.1538H5.36667L8.89333 78H7.05333L6.13333 75.5384ZM4.44667 69.8461C4.44667 69.8461 4.29333 70.7692 3.98667 71.3846L3.06667 74H5.82667L4.90667 71.3846C4.75333 70.923 4.44667 69.8461 4.44667 69.8461Z" fill="white"/>
<path fill-rule="evenodd" clip-rule="evenodd" d="M18.7058 75.0769C18.8592 75.6923 18.8592 76.1538 18.8592 76.1538C18.8592 76.1538 18.8592 75.6923 19.0125 75.0769L20.6992 68.3077H22.5392L19.9325 78H17.9392L16.4058 72.1538C16.2525 71.5384 16.0992 70.923 16.0992 70.923C16.0992 70.923 15.9458 71.5384 15.7925 72.1538L14.2592 78H12.2658L9.8125 68.1538H11.6525L13.1858 74.923C13.3392 75.5384 13.3392 76 13.3392 76C13.3392 76 13.3392 75.5384 13.4925 74.923L15.3325 68.1538H16.8658L18.7058 75.0769Z" fill="white"/>
<path d="M88.9328 71.3848C89.8528 71.3848 90.6194 72.154 90.6194 73.0771C90.6194 74.0001 89.8528 74.7694 88.9328 74.7694C88.0128 74.7694 87.2461 74.0001 87.2461 73.0771C87.2461 72.154 88.0128 71.3848 88.9328 71.3848ZM88.9328 74.6155C89.6994 74.6155 90.4661 74.0001 90.4661 73.0771C90.4661 72.154 89.8528 71.5386 88.9328 71.5386C88.1661 71.5386 87.3994 72.154 87.3994 73.0771C87.3994 74.0001 88.0128 74.6155 88.9328 74.6155ZM88.3194 72.154H88.9328C89.2394 72.154 89.5461 72.3078 89.5461 72.7694C89.5461 73.0771 89.3928 73.2309 89.2394 73.2309C89.2394 73.2309 89.2394 73.2309 89.2394 73.3848L89.5461 74.154H89.2394L88.7794 73.3848H88.3194V74.154H88.1661L88.3194 72.154ZM88.9328 73.0771C89.0861 73.0771 89.2394 72.9232 89.2394 72.7694C89.2394 72.6155 89.0861 72.4617 88.9328 72.4617H88.4728V73.2309H88.9328V73.0771Z" fill="white"/>
<path fill-rule="evenodd" clip-rule="evenodd" d="M34.8077 35.5385L42.781 31.2308L35.881 27.6923L53.9744 18.4615C55.201 17.8462 57.041 16.3077 57.041 15.0769V0L45.541 5.84615L34.3477 0.153846V11.5385L24.6877 16.7692C23.461 17.3846 22.2344 18.9231 22.2344 20.1538V35.2308C22.2344 36.4615 23.1544 38 24.381 38.6154L32.8144 43.0769V38.9231C32.8144 37.8462 33.581 36.3077 34.8077 35.5385Z" fill="white"/>
<path fill-rule="evenodd" clip-rule="evenodd" d="M67.4677 20.1537C67.3143 18.923 65.781 17.5383 64.7077 16.923L58.5743 12.4614V15.0768C58.5743 16.3076 58.1143 17.846 56.8877 18.4614L46.1543 24.3076L52.901 27.846L36.1877 36.923C34.961 37.5383 34.3477 39.0768 34.3477 40.3076V55.3845L45.6943 49.5383L57.041 55.3845V43.846L66.0877 38.6153C67.3143 37.9999 67.621 36.4614 67.621 35.2307L67.4677 20.1537Z" fill="white"/>
</svg>