<svg width="70" height="44" viewBox="0 0 70 44" fill="none" xmlns="http://www.w3.org/2000/svg">
<path d="M63.215 6.22655H45.6756V1.8254H63.2165V6.22655H63.215ZM33.9992 24.2742C35.1309 26.045 35.6965 28.1952 35.6965 30.7194C35.6965 33.3299 35.0588 35.6717 33.7616 37.7402C32.9363 39.1091 31.9117 40.2654 30.6805 41.1962C29.2939 42.2728 27.6523 43.0109 25.7652 43.4053C23.872 43.8004 21.8228 44 19.6155 44H0V0H21.0347C26.3367 0.0871352 30.0956 1.63896 32.3153 4.68656C33.6472 6.55569 34.3071 8.79852 34.3071 11.4055C34.3071 14.0955 33.6392 16.2479 32.2943 17.8833C31.5462 18.8002 30.441 19.6342 28.9779 20.387C31.194 21.2066 32.8755 22.4972 33.9992 24.2742ZM10.0449 17.347H19.2614C21.1554 17.347 22.6865 16.9833 23.8658 16.2563C25.0442 15.5305 25.6322 14.2402 25.6322 12.3877C25.6322 10.341 24.8536 8.98249 23.2928 8.32865C21.9511 7.87439 20.2345 7.64044 18.1515 7.64044H10.0449V17.347ZM26.5196 30.0909C26.5196 27.8053 25.5949 26.2252 23.7492 25.3774C22.7171 24.8955 21.2609 24.6492 19.3937 24.6316H10.0449V36.3574H19.249C21.14 36.3574 22.6035 36.1074 23.6597 35.5857C25.5645 34.6266 26.5196 32.8012 26.5196 30.0909ZM69.7227 22.9328C69.9346 24.3724 70.0304 26.461 69.9915 29.191H47.276C47.4013 32.3584 48.4837 34.5734 50.5366 35.841C51.7746 36.6359 53.2756 37.0241 55.0332 37.0241C56.8866 37.0241 58.3971 36.5508 59.5599 35.5778C60.1935 35.0621 60.7524 34.3341 61.2356 33.4155H69.5616C69.3435 35.2863 68.341 37.1837 66.5394 39.1119C63.7482 42.1766 59.8335 43.7133 54.806 43.7133C50.6528 43.7133 46.9925 42.4173 43.8154 39.8346C40.6489 37.2429 39.0586 33.0397 39.0586 27.209C39.0586 21.7414 40.4863 17.5564 43.3514 14.6435C46.2271 11.7251 49.9384 10.2726 54.5129 10.2726C57.2244 10.2726 59.6687 10.7622 61.8493 11.7465C64.023 12.7318 65.8196 14.2824 67.2345 16.4136C68.5149 18.2905 69.3384 20.4607 69.7227 22.9328ZM61.5274 23.7539C61.3747 21.5637 60.6508 19.906 59.3474 18.773C58.0547 17.637 56.4398 17.0667 54.5129 17.0667C52.4158 17.0667 50.7965 17.6763 49.6459 18.8745C48.4875 20.0702 47.7667 21.6958 47.4713 23.754H61.5274V23.7539Z" fill="white"/>
</svg>
