<svg width="51" height="74" viewBox="0 0 51 74" fill="none" xmlns="http://www.w3.org/2000/svg">
<path fill-rule="evenodd" clip-rule="evenodd" d="M0.175781 58.4257C0.175781 58.0815 0.263712 57.8234 0.351643 57.5652C0.439574 57.3071 0.615436 57.0489 0.791299 56.8768C0.967161 56.7048 1.23095 56.5327 1.49475 56.3606C1.75854 56.2745 2.11026 56.1885 2.46199 56.1885C2.72578 56.1885 2.90164 56.1885 3.16544 56.2745C3.3413 56.3606 3.51716 56.4466 3.69302 56.5327C3.86888 56.6187 3.95682 56.7048 4.04475 56.8768C4.13268 56.9629 4.13268 57.135 4.13268 57.221C4.13268 57.3071 4.13268 57.4792 4.04475 57.4792C3.95682 57.5652 3.86888 57.5652 3.78095 57.5652C3.69302 57.5652 3.60509 57.5652 3.51716 57.5652C3.42923 57.5652 3.3413 57.4792 3.25337 57.3931C3.16544 57.3071 3.07751 57.3071 2.90164 57.221C2.81371 57.135 2.63785 57.135 2.46199 57.135C2.19819 57.135 1.9344 57.221 1.67061 57.3931C1.40682 57.5652 1.31888 57.9094 1.31888 58.3396V60.1466C1.31888 60.5768 1.40682 60.835 1.67061 61.0931C1.9344 61.2652 2.19819 61.3513 2.46199 61.3513C2.63785 61.3513 2.81371 61.3513 2.90164 61.3513C2.98957 61.3513 3.07751 61.2652 3.25337 61.2652C3.3413 61.0931 3.3413 61.0931 3.42923 61.0071C3.51716 61.0071 3.51716 60.921 3.60509 60.921H3.69302C3.78095 60.921 3.78095 60.921 3.86888 60.921C3.95682 60.921 4.13268 60.921 4.13268 61.0071C4.22061 61.0931 4.22061 61.1792 4.22061 61.2652C4.22061 61.4373 4.22061 61.5234 4.13268 61.6094C4.04475 61.6954 3.95682 61.8675 3.78095 61.9536C3.60509 62.0396 3.42923 62.1257 3.25337 62.2117C3.07751 62.2978 2.81371 62.2978 2.54992 62.2978C2.19819 62.2978 1.84647 62.2117 1.58268 62.1257C1.31888 62.0396 1.05509 61.8675 0.87923 61.6094C0.703367 61.4373 0.527505 61.1792 0.439574 60.921C0.351643 60.6629 0.263712 60.3187 0.263712 60.0606V58.4257H0.175781Z" fill="white"/>
<path d="M2.46207 62.5558C2.11034 62.5558 1.75862 62.4698 1.4069 62.3837C1.1431 62.2117 0.87931 62.0396 0.615517 61.8675C0.439655 61.6093 0.263793 61.3512 0.175862 61.0931C0.087931 60.6628 0 60.3186 0 60.0605V58.4256C0 58.0814 0.087931 57.7372 0.175862 57.4791C0.263793 57.1349 0.439655 56.8768 0.615517 56.7047C0.791379 56.4465 1.05517 56.2745 1.4069 56.1884C1.93448 55.9303 2.63793 55.9303 3.25345 56.1024C3.51724 56.1884 3.6931 56.2745 3.86897 56.3605C4.04483 56.4465 4.22069 56.6186 4.30862 56.7047C4.39655 56.7907 4.39655 56.9628 4.39655 57.1349C4.39655 57.307 4.30862 57.4791 4.22069 57.5651C4.04483 57.7372 3.6931 57.7372 3.42931 57.6512C3.34138 57.6512 3.25345 57.5651 3.07759 57.4791C2.98966 57.3931 2.90172 57.3931 2.81379 57.307C2.72586 57.307 2.63793 57.221 2.46207 57.221C2.19828 57.221 2.02241 57.307 1.84655 57.4791C1.67069 57.6512 1.58276 57.9093 1.58276 58.2535V60.0605C1.58276 60.4047 1.67069 60.6628 1.84655 60.8349C2.02241 61.007 2.19828 61.0931 2.46207 61.0931C2.63793 61.0931 2.72586 61.0931 2.90172 61.0931C2.98966 61.0931 3.07759 61.007 3.16552 61.007C3.25345 61.007 3.25345 60.921 3.34138 60.921C3.42931 60.921 3.42931 60.8349 3.51724 60.8349C3.60517 60.8349 3.60517 60.8349 3.6931 60.7489C3.78103 60.7489 3.78103 60.7489 3.86897 60.7489C4.04483 60.7489 4.22069 60.8349 4.30862 60.921C4.39655 61.007 4.39655 61.1791 4.39655 61.3512C4.39655 61.5233 4.30862 61.6954 4.22069 61.8675C4.13276 62.0396 3.9569 62.1256 3.78103 62.2117C3.60517 62.2977 3.42931 62.3837 3.16552 62.4698C2.98966 62.4698 2.72586 62.5558 2.46207 62.5558ZM2.46207 56.3605C2.11034 56.3605 1.84655 56.4465 1.58276 56.5326C1.31897 56.6186 1.1431 56.7907 0.967241 56.9628C0.791379 57.1349 0.703448 57.3931 0.615517 57.6512C0.527586 57.9093 0.527586 58.1675 0.527586 58.4256V60.0605C0.527586 60.3186 0.527586 60.5768 0.615517 60.8349C0.703448 61.0931 0.791379 61.2651 0.967241 61.5233C1.1431 61.6954 1.31897 61.8675 1.58276 61.9535C2.02241 62.1256 2.63793 62.1256 3.07759 62.0396C3.25345 61.9535 3.42931 61.9535 3.60517 61.8675C3.6931 61.7814 3.86897 61.6954 3.86897 61.6093C3.9569 61.5233 3.9569 61.4372 3.9569 61.3512C3.9569 61.2651 3.9569 61.2651 3.9569 61.1791C3.86897 61.0931 3.78103 61.1791 3.6931 61.1791H3.60517C3.60517 61.1791 3.51724 61.1791 3.51724 61.2651C3.51724 61.2651 3.42931 61.3512 3.34138 61.3512C3.25345 61.4372 3.07759 61.4372 2.98966 61.5233C2.81379 61.5233 2.72586 61.6093 2.46207 61.6093C2.11034 61.6093 1.75862 61.5233 1.49483 61.2651C1.23103 61.007 1.05517 60.6628 1.05517 60.1465V58.3396C1.05517 57.8233 1.23103 57.4791 1.49483 57.221C1.75862 56.9628 2.11034 56.8768 2.46207 56.8768C2.63793 56.8768 2.81379 56.8768 2.98966 56.9628C3.07759 57.0489 3.25345 57.0489 3.34138 57.1349C3.42931 57.221 3.51724 57.221 3.60517 57.221C3.6931 57.221 3.86897 57.307 3.9569 57.221C3.9569 57.221 4.04483 57.221 4.04483 57.0489C4.04483 56.9628 4.04483 56.8768 3.9569 56.7907C3.86897 56.7047 3.78103 56.6186 3.6931 56.5326C3.51724 56.4465 3.42931 56.3605 3.16552 56.3605C2.90172 56.3605 2.72586 56.3605 2.46207 56.3605Z" fill="white"/>
<path fill-rule="evenodd" clip-rule="evenodd" d="M7.47554 62.2977C7.38761 62.2977 7.29968 62.2977 7.12381 62.2977C6.94795 62.2977 6.86002 62.2116 6.68416 62.2116C6.5083 62.1256 6.42037 62.1256 6.2445 62.0395C6.06864 61.9535 5.98071 61.8674 5.80485 61.7814C5.71692 61.6953 5.62899 61.6093 5.54106 61.5233C5.45313 61.4372 5.45312 61.2651 5.45312 61.1791C5.45312 60.9209 5.62899 60.7488 5.98071 60.7488C6.06864 60.7488 6.15657 60.7488 6.2445 60.8349C6.33244 60.9209 6.42037 60.9209 6.5083 61.007C6.59623 61.093 6.77209 61.1791 6.94795 61.2651C7.12381 61.3512 7.38761 61.3512 7.56347 61.3512C7.82726 61.3512 8.00313 61.2651 8.17899 61.1791C8.35485 61.093 8.44278 60.9209 8.44278 60.6628C8.44278 60.4907 8.35485 60.3186 8.26692 60.1465C8.09106 60.0605 7.91519 59.8884 7.73933 59.8023C7.56347 59.7163 7.29968 59.6302 7.03588 59.5442C6.77209 59.4581 6.59623 59.3721 6.33244 59.2C6.15657 59.0279 5.98071 58.8558 5.80485 58.6837C5.62899 58.5116 5.62899 58.1674 5.62899 57.9093C5.62899 57.6512 5.71692 57.393 5.80485 57.2209C5.89278 57.0488 5.98071 56.7907 6.15657 56.7046C6.33244 56.5326 6.5083 56.4465 6.77209 56.3605C7.03588 56.2744 7.29968 56.2744 7.56347 56.2744C7.91519 56.2744 8.17899 56.2744 8.44278 56.3605C8.70657 56.4465 8.88244 56.5326 9.0583 56.6186C9.23416 56.7046 9.32209 56.8767 9.41002 56.9628C9.49795 57.0488 9.49795 57.2209 9.49795 57.307C9.49795 57.4791 9.49795 57.5651 9.41002 57.6512C9.23416 57.6512 9.0583 57.6512 8.88244 57.6512C8.7945 57.6512 8.70657 57.6512 8.61864 57.5651C8.53071 57.4791 8.44278 57.4791 8.35485 57.393C8.26692 57.307 8.17899 57.2209 8.00313 57.2209C7.82726 57.1349 7.6514 57.1349 7.38761 57.1349C7.12381 57.1349 6.94795 57.2209 6.86002 57.307C6.68416 57.393 6.59623 57.5651 6.59623 57.8233C6.59623 57.9953 6.68416 58.1674 6.77209 58.3395C6.94795 58.4256 7.12381 58.5977 7.29968 58.6837C7.47554 58.7698 7.73933 58.8558 8.00313 58.9419C8.26692 59.0279 8.44278 59.1139 8.70657 59.286C8.88244 59.4581 9.0583 59.6302 9.23416 59.8023C9.41002 59.9744 9.41002 60.3186 9.41002 60.6628C9.41002 61.1791 9.23416 61.6093 8.88244 61.8674C8.53071 62.1256 8.09106 62.2977 7.47554 62.2977Z" fill="white"/>
<path d="M7.47562 62.5558C7.38769 62.5558 7.21183 62.5558 7.1239 62.5558C6.94803 62.5558 6.8601 62.4698 6.68424 62.4698C6.50838 62.3837 6.33252 62.3837 6.24459 62.2977C6.06872 62.2116 5.89286 62.1256 5.80493 62.0395C5.62907 61.9535 5.54114 61.8674 5.45321 61.6953C5.36527 61.5233 5.27734 61.3512 5.27734 61.1791C5.27734 60.7488 5.54114 60.4907 5.98079 60.4907C6.15665 60.4907 6.24459 60.5767 6.42045 60.5767C6.50838 60.6628 6.59631 60.6628 6.68424 60.7488C6.77217 60.8349 6.8601 60.9209 7.03596 61.007C7.38769 61.1791 7.82734 61.1791 8.09114 61.007C8.09114 61.007 8.267 60.9209 8.267 60.6628C8.267 60.4907 8.17907 60.4047 8.09114 60.3186C8.00321 60.2326 7.82734 60.1465 7.65148 59.9744C7.47562 59.8884 7.21183 59.8023 6.94803 59.7163C6.68424 59.6302 6.42045 59.4581 6.24459 59.3721C5.98079 59.2 5.80493 59.0279 5.62907 58.7698C5.36527 58.5116 5.27734 58.2535 5.27734 57.8233C5.27734 57.5651 5.36527 57.307 5.45321 57.0488C5.54114 56.7907 5.717 56.6186 5.89286 56.4465C6.06872 56.2744 6.33252 56.1023 6.59631 56.0163C7.1239 55.8442 7.91528 55.8442 8.44286 56.0163C8.70665 56.1023 8.97045 56.1884 9.14631 56.3605C9.32217 56.5326 9.49803 56.6186 9.58597 56.7907C9.6739 56.9628 9.76183 57.0488 9.76183 57.2209C9.76183 57.393 9.6739 57.5651 9.58597 57.7372C9.49803 57.8233 9.32217 57.9953 9.05838 57.9953C8.88252 57.9953 8.79459 57.9953 8.70665 57.9093C8.44286 57.7372 8.35493 57.6512 8.267 57.6512C8.17907 57.6512 8.09114 57.5651 7.91528 57.4791C7.82734 57.393 7.56355 57.393 7.38769 57.393C7.21183 57.393 7.03596 57.393 6.94803 57.5651C6.8601 57.6512 6.77217 57.7372 6.77217 57.9093C6.77217 58.0814 6.77217 58.1674 6.94803 58.2535C7.03596 58.3395 7.21183 58.4256 7.38769 58.5116C7.56355 58.5977 7.82734 58.6837 8.09114 58.7698C8.35493 58.8558 8.61872 59.0279 8.79459 59.114C9.05838 59.286 9.23424 59.4581 9.4101 59.7163C9.58597 59.9744 9.6739 60.3186 9.6739 60.6628C9.6739 61.2651 9.49803 61.6953 9.05838 62.0395C8.61872 62.3837 8.09114 62.5558 7.47562 62.5558ZM5.80493 60.9209C5.54114 60.9209 5.54114 61.007 5.54114 61.1791C5.54114 61.2651 5.54114 61.3512 5.62907 61.4372C5.717 61.5233 5.80493 61.6093 5.89286 61.6953C5.98079 61.7814 6.15665 61.8674 6.24459 61.8674C6.42045 61.8674 6.59631 61.9535 6.68424 61.9535C6.8601 61.9535 6.94803 62.0395 7.1239 62.0395C7.21183 62.0395 7.38769 62.0395 7.47562 62.0395C8.00321 62.0395 8.44286 61.8674 8.79459 61.6093C9.05838 61.3512 9.23424 61.007 9.23424 60.4907C9.23424 60.2326 9.14631 59.9744 9.05838 59.8023C8.97045 59.6302 8.79459 59.4581 8.61872 59.3721C8.44286 59.286 8.17907 59.114 8.00321 59.0279C7.73941 58.9419 7.56355 58.8558 7.29976 58.7698C7.03596 58.6837 6.8601 58.5116 6.77217 58.4256C6.59631 58.2535 6.50838 58.0814 6.50838 57.8233C6.50838 57.5651 6.59631 57.307 6.77217 57.1349C6.94803 56.9628 7.21183 56.8767 7.47562 56.8767C7.82734 56.8767 8.00321 56.9628 8.17907 57.0488C8.35493 57.1349 8.44286 57.2209 8.53079 57.307C8.61872 57.393 8.61872 57.393 8.70665 57.393C8.79459 57.4791 9.05838 57.393 9.05838 57.393C9.05838 57.307 9.14631 57.307 9.14631 57.1349C9.14631 57.1349 9.14631 57.0488 9.05838 56.9628C8.97045 56.8767 8.88252 56.7907 8.70665 56.7046C8.53079 56.6186 8.35493 56.5326 8.17907 56.4465C7.73941 56.2744 7.1239 56.2744 6.68424 56.4465C6.50838 56.5326 6.33252 56.6186 6.15665 56.7907C5.98079 56.9628 5.89286 57.0488 5.80493 57.307C5.717 57.4791 5.717 57.7372 5.717 57.9093C5.717 58.1674 5.80493 58.4256 5.89286 58.5977C5.98079 58.7698 6.15665 58.9419 6.33252 59.0279C6.50838 59.2 6.77217 59.286 6.94803 59.3721C7.21183 59.4581 7.38769 59.5442 7.65148 59.6302C7.91528 59.7163 8.09114 59.8884 8.267 59.9744C8.44286 60.1465 8.53079 60.3186 8.53079 60.6628C8.53079 61.007 8.35493 61.2651 8.17907 61.3512C7.82734 61.6093 7.21183 61.6093 6.68424 61.4372C6.42045 61.3512 6.24459 61.2651 6.15665 61.093L6.06872 61.007C5.98079 60.9209 5.89286 60.9209 5.80493 60.9209Z" fill="white"/>
<path fill-rule="evenodd" clip-rule="evenodd" d="M12.9248 62.2977C12.8368 62.2977 12.7489 62.2977 12.573 62.2977C12.3972 62.2977 12.3092 62.2116 12.1334 62.2116C11.9575 62.1256 11.8696 62.1256 11.6937 62.0395C11.5179 61.9535 11.4299 61.8674 11.2541 61.7814C11.1661 61.6953 10.9903 61.6093 10.9903 61.5233C10.9903 61.4372 10.9023 61.2651 10.9023 61.1791C10.9023 60.9209 11.0782 60.7488 11.4299 60.7488C11.5179 60.7488 11.6058 60.7488 11.6937 60.8349C11.7817 60.9209 11.8696 60.9209 11.9575 61.007C12.0454 61.093 12.2213 61.1791 12.3972 61.2651C12.573 61.3512 12.8368 61.3512 13.0127 61.3512C13.2765 61.3512 13.4523 61.2651 13.6282 61.1791C13.8041 61.093 13.8041 60.9209 13.8041 60.6628C13.8041 60.4907 13.7161 60.3186 13.6282 60.1465C13.4523 60.0605 13.2765 59.8884 13.1006 59.8023C12.9248 59.7163 12.661 59.6302 12.3972 59.5442C12.1334 59.4581 11.9575 59.3721 11.6937 59.2C11.5179 59.0279 11.342 58.8558 11.1661 58.6837C10.9903 58.5116 10.9903 58.1674 10.9903 57.9093C10.9903 57.6512 11.0782 57.393 11.1661 57.2209C11.2541 57.0488 11.342 56.7907 11.5179 56.7046C11.6937 56.5326 11.8696 56.4465 12.1334 56.3605C12.3972 56.2744 12.661 56.2744 12.9248 56.2744C13.2765 56.2744 13.5403 56.2744 13.8041 56.3605C14.0679 56.4465 14.2437 56.5326 14.4196 56.6186C14.5954 56.7046 14.6834 56.8767 14.7713 56.9628C14.8592 57.0488 14.8592 57.2209 14.8592 57.307C14.8592 57.4791 14.8592 57.5651 14.7713 57.6512C14.6834 57.6512 14.5954 57.6512 14.4196 57.6512C14.3317 57.6512 14.2437 57.6512 14.1558 57.5651C14.0679 57.4791 13.9799 57.4791 13.892 57.393C13.8041 57.307 13.7161 57.2209 13.5403 57.2209C13.3644 57.1349 13.1886 57.1349 12.9248 57.1349C12.661 57.1349 12.4851 57.2209 12.3972 57.307C12.2213 57.393 12.1334 57.5651 12.1334 57.8233C12.1334 57.9953 12.2213 58.1674 12.3092 58.3395C12.4851 58.4256 12.661 58.5977 12.8368 58.6837C13.0127 58.7698 13.2765 58.8558 13.5403 58.9419C13.8041 59.0279 13.9799 59.1139 14.2437 59.286C14.4196 59.4581 14.5954 59.6302 14.7713 59.8023C14.9472 59.9744 14.9472 60.3186 14.9472 60.6628C14.9472 61.1791 14.7713 61.6093 14.4196 61.8674C14.0679 62.1256 13.5403 62.2977 12.9248 62.2977Z" fill="white"/>
<path d="M12.9248 62.5558C12.8369 62.5558 12.661 62.5558 12.5731 62.5558C12.3973 62.5558 12.3093 62.4698 12.1335 62.4698C11.9576 62.3837 11.7817 62.3837 11.6938 62.2977C11.5179 62.2116 11.3421 62.1256 11.2541 62.0395C11.0783 61.9535 10.9904 61.8674 10.9024 61.6953C10.8145 61.5233 10.7266 61.3512 10.7266 61.1791C10.7266 60.7488 10.9904 60.4907 11.43 60.4907C11.6059 60.4907 11.6938 60.5767 11.8697 60.5767C11.9576 60.6628 12.0455 60.6628 12.1335 60.7488C12.2214 60.8349 12.3093 60.9209 12.4852 61.007C12.8369 61.1791 13.2766 61.1791 13.5404 61.007C13.5404 61.007 13.7162 60.9209 13.7162 60.6628C13.7162 60.4907 13.6283 60.4047 13.5404 60.3186C13.4524 60.2326 13.2766 60.0605 13.1007 59.9744C12.9248 59.8884 12.661 59.8023 12.3973 59.7163C12.1335 59.6302 11.8697 59.4581 11.6938 59.3721C11.43 59.2 11.2541 59.0279 11.0783 58.7698C10.9024 58.5116 10.8145 58.2535 10.8145 57.8233C10.8145 57.5651 10.9024 57.307 10.9904 57.0488C11.0783 56.7907 11.2541 56.6186 11.43 56.4465C11.6059 56.2744 11.8697 56.1023 12.1335 56.0163C12.661 55.8442 13.4524 55.8442 13.98 56.0163C14.2438 56.1023 14.5076 56.1884 14.6835 56.3605C14.8593 56.5326 15.0352 56.6186 15.1231 56.7907C15.211 56.9628 15.299 57.0488 15.299 57.2209C15.299 57.393 15.211 57.5651 15.1231 57.7372C15.0352 57.8233 14.8593 57.9953 14.5955 57.9953C14.4197 57.9953 14.3317 57.9953 14.2438 57.9093C14.1559 57.8233 14.0679 57.8233 13.98 57.7372C13.8921 57.7372 13.8041 57.6512 13.6283 57.5651C13.5404 57.4791 13.2766 57.4791 13.1007 57.4791C12.9248 57.4791 12.749 57.5651 12.661 57.6512C12.3973 57.5651 12.3093 57.6512 12.3093 57.8233C12.3093 57.9953 12.3093 58.0814 12.4852 58.1674C12.5731 58.2535 12.749 58.3395 12.9248 58.4256C13.1007 58.5116 13.3645 58.5977 13.6283 58.6837C13.8921 58.7698 14.1559 58.9419 14.3317 59.0279C14.5955 59.2 14.7714 59.3721 14.9473 59.6302C15.1231 59.8884 15.211 60.2326 15.211 60.5767C15.211 61.1791 15.0352 61.6093 14.5955 61.9535C14.1559 62.3837 13.6283 62.5558 12.9248 62.5558ZM11.3421 60.9209C11.0783 60.9209 11.0783 61.007 11.0783 61.1791C11.0783 61.2651 11.0783 61.3512 11.1662 61.4372C11.2541 61.5233 11.3421 61.6093 11.43 61.6953C11.5179 61.7814 11.6938 61.8674 11.7817 61.8674C11.9576 61.9535 12.0455 61.9535 12.2214 62.0395C12.3973 62.0395 12.4852 62.1256 12.661 62.1256C12.749 62.1256 12.9248 62.1256 13.0128 62.1256C13.5404 62.1256 13.98 61.9535 14.3317 61.6953C14.5955 61.4372 14.7714 61.093 14.7714 60.5767C14.7714 60.3186 14.6835 60.0605 14.5955 59.8884C14.5076 59.7163 14.3317 59.5442 14.1559 59.4581C13.98 59.3721 13.8041 59.2 13.5404 59.114C13.2766 59.0279 13.1007 58.9419 12.8369 58.8558C12.5731 58.7698 12.3973 58.5977 12.3093 58.5116C12.1335 58.3395 12.0455 58.1674 12.0455 57.9093C12.0455 57.6512 12.1335 57.393 12.3093 57.2209C12.4852 57.0488 12.749 56.9628 13.0128 56.9628C13.3645 56.9628 13.5404 57.0488 13.7162 57.1349C13.8921 57.2209 13.98 57.307 14.0679 57.393C14.1559 57.4791 14.1559 57.4791 14.2438 57.4791C14.3317 57.4791 14.3317 57.4791 14.4197 57.4791C14.5076 57.4791 14.5955 57.4791 14.5955 57.393C14.5955 57.307 14.6835 57.307 14.6835 57.1349C14.6835 57.1349 14.6835 57.0488 14.5955 56.9628C14.5076 56.8767 14.4197 56.7907 14.2438 56.7046C14.0679 56.6186 13.8921 56.5326 13.7162 56.4465C13.2766 56.2744 12.661 56.2744 12.2214 56.4465C12.0455 56.5326 11.8697 56.6186 11.6938 56.7907C11.5179 56.9628 11.43 57.0488 11.3421 57.307C11.2541 57.4791 11.2541 57.7372 11.2541 57.9093C11.2541 58.1674 11.3421 58.4256 11.43 58.5977C11.5179 58.7698 11.6938 58.9419 11.8697 59.0279C12.0455 59.2 12.3093 59.286 12.4852 59.3721C12.749 59.4581 12.9248 59.5442 13.1886 59.6302C13.4524 59.7163 13.6283 59.8884 13.8041 59.9744C13.98 60.1465 14.0679 60.4046 14.0679 60.6628C14.0679 61.007 13.8921 61.2651 13.7162 61.3512C13.3645 61.6093 12.749 61.6093 12.2214 61.4372C11.9576 61.3512 11.7817 61.2651 11.6938 61.093C11.6059 61.007 11.6059 61.007 11.5179 60.9209C11.5179 60.9209 11.43 60.9209 11.3421 60.9209Z" fill="white"/>
<path d="M19.5195 56.6183C19.5195 56.5323 19.6075 56.3602 19.6954 56.2741C19.7833 56.1881 19.9592 56.1021 20.135 56.1021H21.3661C21.8057 56.1021 22.1575 56.1881 22.5092 56.2741C22.8609 56.4462 23.1247 56.6183 23.3006 56.7904C23.4764 57.0486 23.6523 57.3067 23.7402 57.5648C23.8282 57.909 23.9161 58.1672 23.9161 58.5974V59.63C23.9161 59.9742 23.8282 60.3183 23.7402 60.5765C23.6523 60.8346 23.4764 61.0928 23.3006 61.3509C23.1247 61.609 22.8609 61.7811 22.5092 61.8672C22.1575 61.9532 21.8057 62.0393 21.3661 62.0393H20.135C19.9592 62.0393 19.7833 61.9532 19.6954 61.8672C19.6075 61.7811 19.5195 61.6951 19.5195 61.523V56.6183ZM20.6626 57.2207V61.2649H21.3661C21.8057 61.2649 22.1575 61.1788 22.4213 60.9207C22.685 60.6625 22.773 60.4044 22.773 59.9742V58.7695C22.773 58.3393 22.685 57.9951 22.4213 57.7369C22.1575 57.4788 21.8057 57.3928 21.3661 57.3928H20.6626V57.2207Z" fill="white"/>
<path d="M21.3662 62.3836H20.1351C19.8713 62.3836 19.6955 62.2975 19.6075 62.2115C19.4317 62.1254 19.3438 61.9533 19.3438 61.7812V56.6184C19.3438 56.4463 19.4317 56.2743 19.6075 56.1882C19.7834 56.0161 19.9593 56.0161 20.1351 56.0161H21.3662C21.8058 56.0161 22.2455 56.1022 22.5972 56.2743C22.9489 56.4463 23.2127 56.6184 23.4765 56.8766C23.7403 57.1347 23.9162 57.3929 24.0041 57.737C24.092 58.0812 24.18 58.4254 24.18 58.7696V59.8022C24.18 60.1464 24.092 60.4905 24.0041 60.8347C23.9162 61.1789 23.7403 61.437 23.4765 61.6952C23.2127 61.9533 22.9489 62.1254 22.5972 62.2975C22.2455 62.3836 21.8058 62.3836 21.3662 62.3836ZM20.1351 56.4463C20.0472 56.4463 19.9593 56.4463 19.8713 56.5324C19.7834 56.6184 19.7834 56.6184 19.7834 56.7045V61.8673C19.7834 61.8673 19.7834 61.9533 19.8713 62.0394C19.9593 62.1254 20.0472 62.1254 20.1351 62.1254H21.3662C21.8058 62.1254 22.1575 62.0394 22.4213 61.9533C22.6851 61.8673 22.9489 61.6952 23.1248 61.5231C23.3006 61.351 23.4765 61.0929 23.5644 60.8347C23.6524 60.5766 23.7403 60.2324 23.7403 59.9743V58.9417C23.7403 58.5975 23.6524 58.3394 23.5644 57.9952C23.4765 57.737 23.3006 57.4789 23.1248 57.3068C22.9489 57.1347 22.6851 56.9626 22.4213 56.7905C22.1575 56.7045 21.8058 56.6184 21.3662 56.6184H20.1351V56.4463ZM21.3662 61.437H20.4869V56.9626H21.3662C21.8937 56.9626 22.2455 57.1347 22.5972 57.3929C22.861 57.651 23.0369 58.0812 23.0369 58.5975V59.8022C23.0369 60.3184 22.861 60.6626 22.5972 60.9208C22.2455 61.265 21.8058 61.437 21.3662 61.437ZM20.8386 61.0068H21.2782C21.63 61.0068 21.9817 60.9208 22.1575 60.7487C22.3334 60.5766 22.4213 60.3184 22.4213 59.8882V58.6836C22.4213 58.2533 22.3334 57.9952 22.0696 57.737C21.8937 57.565 21.542 57.3929 21.1903 57.3929H20.7506V61.0068H20.8386Z" fill="white"/>
<path fill-rule="evenodd" clip-rule="evenodd" d="M29.3689 56.3602C29.4568 56.4462 29.5447 56.6183 29.5447 56.7044C29.5447 56.8765 29.4568 56.9625 29.3689 57.0486C29.281 57.1346 29.1051 57.2207 28.9292 57.2207H26.8189V58.6834H28.2258C28.4016 58.6834 28.5775 58.7695 28.6654 58.8555C28.7534 58.9416 28.8413 59.0276 28.8413 59.1997C28.8413 59.3718 28.7534 59.4579 28.6654 59.5439C28.5775 59.63 28.4016 59.716 28.2258 59.716H26.8189V61.2649H29.0172C29.193 61.2649 29.3689 61.3509 29.4568 61.4369C29.5447 61.523 29.6327 61.609 29.6327 61.7811C29.6327 61.9532 29.5447 62.0393 29.4568 62.1253C29.3689 62.2114 29.193 62.2974 29.0172 62.2974H26.2913C26.1154 62.2974 25.9396 62.2114 25.8516 62.1253C25.7637 62.0393 25.6758 61.9532 25.6758 61.7811V56.6183C25.6758 56.5323 25.7637 56.3602 25.8516 56.2741C25.9396 56.1881 26.1154 56.1021 26.2913 56.1021H29.0172C29.193 56.1881 29.281 56.2741 29.3689 56.3602Z" fill="white"/>
<path d="M29.0172 62.3836H26.2914C26.0276 62.3836 25.8517 62.2975 25.7638 62.2115C25.5879 62.1254 25.5 61.9533 25.5 61.7812V56.6184C25.5 56.4463 25.5879 56.2743 25.7638 56.1882C25.9397 56.1022 26.1155 56.0161 26.2914 56.0161H29.0172C29.281 56.0161 29.4569 56.1022 29.5448 56.1882C29.7207 56.3603 29.7207 56.5324 29.7207 56.7045C29.7207 56.8766 29.6328 57.0487 29.5448 57.2208C29.369 57.3929 29.1931 57.3929 29.0172 57.3929H27.0828V58.4254H28.3138C28.5776 58.4254 28.7534 58.5115 28.9293 58.5975C29.1052 58.7696 29.1052 58.9417 29.1052 59.1138C29.1052 59.2859 29.0172 59.458 28.9293 59.6301C28.7534 59.8022 28.5776 59.8022 28.3138 59.8022H27.0828V60.9208H29.0172C29.281 60.9208 29.4569 61.0068 29.5448 61.0929C29.7207 61.1789 29.7207 61.437 29.7207 61.6091C29.7207 61.7812 29.6328 61.9533 29.5448 62.1254C29.369 62.3836 29.1931 62.3836 29.0172 62.3836ZM26.2914 56.4463C26.2034 56.4463 26.1155 56.4463 26.0276 56.5324C25.9397 56.6184 25.9397 56.6184 25.9397 56.7045V61.8673C25.9397 61.8673 25.9397 61.9533 26.0276 62.0394C26.1155 62.1254 26.2034 62.1254 26.2914 62.1254H29.0172C29.1052 62.1254 29.1931 62.1254 29.281 62.0394C29.369 61.9533 29.369 61.9533 29.369 61.8673C29.369 61.7812 29.369 61.6952 29.281 61.6952C29.1931 61.6091 29.1052 61.6091 29.0172 61.6091H26.6431V59.6301H28.3138C28.4017 59.6301 28.4897 59.6301 28.5776 59.544C28.6655 59.458 28.6655 59.458 28.6655 59.3719C28.6655 59.1998 28.6655 59.1998 28.5776 59.1138C28.4897 59.0277 28.4017 59.0277 28.3138 59.0277H26.6431V57.1347H29.0172C29.1052 57.1347 29.1931 57.1347 29.281 57.0487C29.369 56.9626 29.369 56.9626 29.369 56.8766C29.369 56.7905 29.369 56.7045 29.281 56.6184C29.1931 56.5324 29.1052 56.5324 29.0172 56.5324H26.2914V56.4463Z" fill="white"/>
<path fill-rule="evenodd" clip-rule="evenodd" d="M32.9755 62.2977C32.8876 62.2977 32.7997 62.2977 32.6238 62.2977C32.448 62.2977 32.36 62.2116 32.1842 62.2116C32.0083 62.1256 31.9204 62.1256 31.7445 62.0395C31.5686 61.9535 31.4807 61.8674 31.3048 61.7814C31.2169 61.6953 31.0411 61.6093 31.0411 61.5233C30.9531 61.4372 30.9531 61.2651 30.9531 61.1791C30.9531 60.9209 31.129 60.7488 31.4807 60.7488C31.5686 60.7488 31.6566 60.7488 31.7445 60.8349C31.8324 60.9209 31.9204 60.9209 32.0083 61.007C32.0962 61.093 32.2721 61.1791 32.448 61.2651C32.6238 61.3512 32.8876 61.3512 33.0635 61.3512C33.3273 61.3512 33.5031 61.2651 33.679 61.1791C33.8548 61.093 33.9428 60.9209 33.9428 60.6628C33.9428 60.4907 33.8548 60.3186 33.7669 60.1465C33.5911 60.0605 33.4152 59.8884 33.2393 59.8023C33.0635 59.7163 32.7997 59.6302 32.5359 59.5442C32.2721 59.4581 32.0962 59.3721 31.8324 59.2C31.6566 59.0279 31.4807 58.8558 31.3048 58.6837C31.129 58.5116 31.129 58.1674 31.129 57.9093C31.129 57.6512 31.2169 57.393 31.3048 57.2209C31.3928 57.0488 31.4807 56.7907 31.6566 56.7046C31.8324 56.5326 32.0083 56.4465 32.2721 56.3605C32.5359 56.2744 32.7997 56.2744 33.0635 56.2744C33.4152 56.2744 33.679 56.2744 33.9428 56.3605C34.2066 56.4465 34.3824 56.5326 34.5583 56.6186C34.7342 56.7046 34.8221 56.8767 34.91 56.9628C34.998 57.0488 34.998 57.2209 34.998 57.307C34.998 57.4791 34.998 57.5651 34.91 57.6512C34.7342 57.6512 34.6462 57.6512 34.4704 57.6512C34.3824 57.6512 34.2945 57.6512 34.2066 57.5651C34.1186 57.4791 34.0307 57.4791 33.9428 57.393C33.8548 57.307 33.7669 57.2209 33.5911 57.2209C33.4152 57.1349 33.2393 57.1349 32.9755 57.1349C32.7117 57.1349 32.5359 57.2209 32.448 57.307C32.2721 57.393 32.2721 57.5651 32.2721 57.8233C32.2721 57.9953 32.36 58.1674 32.448 58.3395C32.6238 58.4256 32.7997 58.5977 32.9755 58.6837C33.1514 58.7698 33.4152 58.8558 33.679 58.9419C33.9428 59.0279 34.1186 59.1139 34.3824 59.286C34.5583 59.4581 34.7342 59.6302 34.91 59.8023C35.0859 59.9744 35.0859 60.3186 35.0859 60.6628C35.0859 61.1791 34.91 61.6093 34.5583 61.8674C34.1186 62.1256 33.5911 62.2977 32.9755 62.2977Z" fill="white"/>
<path d="M32.9756 62.5558C32.8877 62.5558 32.7118 62.5558 32.6239 62.5558C32.448 62.5558 32.3601 62.4698 32.1842 62.4698C32.0084 62.3837 31.8325 62.3837 31.7446 62.2977C31.5687 62.2116 31.3929 62.1256 31.3049 62.0395C31.1291 61.9535 31.0411 61.8674 30.9532 61.6953C30.8653 61.5233 30.7773 61.3512 30.7773 61.1791C30.7773 60.7488 31.0411 60.4907 31.4808 60.4907C31.6567 60.4907 31.7446 60.5767 31.9204 60.5767C32.0084 60.6628 32.0963 60.6628 32.1842 60.7488C32.2722 60.8349 32.3601 60.9209 32.536 61.007C32.8877 61.1791 33.3273 61.1791 33.5911 61.007C33.5911 61.007 33.767 60.9209 33.767 60.6628C33.767 60.4907 33.6791 60.4047 33.5911 60.3186C33.5032 60.2326 33.3273 60.0605 33.1515 59.9744C32.9756 59.8884 32.7118 59.8023 32.448 59.7163C32.1842 59.6302 31.9204 59.4581 31.7446 59.3721C31.4808 59.2 31.3049 59.0279 31.1291 58.7698C30.9532 58.5116 30.8653 58.2535 30.8653 57.8233C30.8653 57.5651 30.9532 57.307 31.0411 57.0488C31.1291 56.7907 31.3049 56.6186 31.4808 56.4465C31.6567 56.2744 31.9204 56.1023 32.1842 56.0163C32.7118 55.8442 33.5032 55.8442 34.0308 56.0163C34.2946 56.1023 34.4704 56.1884 34.7342 56.3605C34.9101 56.5326 35.086 56.6186 35.1739 56.7907C35.2618 56.9628 35.3498 57.0488 35.3498 57.2209C35.3498 57.393 35.2618 57.5651 35.1739 57.7372C35.086 57.9093 34.9101 57.9953 34.6463 57.9953C34.4704 57.9953 34.3825 57.9953 34.2946 57.9093C34.2067 57.8233 34.1187 57.8233 34.0308 57.7372C33.9429 57.7372 33.8549 57.6512 33.6791 57.5651C33.5911 57.4791 33.3273 57.4791 33.1515 57.4791C32.9756 57.4791 32.7998 57.4791 32.7118 57.6512C32.6239 57.7372 32.536 57.8233 32.536 57.9953C32.536 58.1674 32.536 58.2535 32.7118 58.3395C32.7998 58.4256 32.9756 58.5116 33.1515 58.5977C33.3273 58.6837 33.5911 58.7698 33.8549 58.8558C34.1187 58.9419 34.3825 59.114 34.5584 59.2C34.8222 59.3721 34.998 59.5442 35.1739 59.8023C35.1739 59.8884 35.1739 60.2326 35.1739 60.5767C35.1739 61.1791 34.998 61.6093 34.5584 61.9535C34.2067 62.3837 33.6791 62.5558 32.9756 62.5558ZM31.3929 60.9209C31.1291 60.9209 31.1291 61.007 31.1291 61.1791C31.1291 61.2651 31.1291 61.3512 31.217 61.4372C31.3049 61.5233 31.3929 61.6093 31.4808 61.6953C31.5687 61.7814 31.7446 61.8674 31.8325 61.8674C32.0084 61.9535 32.0963 61.9535 32.2722 62.0395C32.448 62.0395 32.536 62.1256 32.7118 62.1256C32.7998 62.1256 32.9756 62.1256 33.0636 62.1256C33.5911 62.1256 34.0308 61.9535 34.3825 61.6953C34.6463 61.4372 34.8222 61.093 34.8222 60.5767C34.8222 60.3186 34.7342 60.0605 34.6463 59.8884C34.5584 59.7163 34.3825 59.5442 34.2067 59.4581C34.0308 59.3721 33.767 59.2 33.5911 59.114C33.3273 59.0279 33.1515 58.9419 32.8877 58.8558C32.6239 58.7698 32.448 58.5977 32.3601 58.5116C32.1842 58.3395 32.0963 58.1674 32.0963 57.9093C32.0963 57.6512 32.1842 57.393 32.3601 57.2209C32.536 57.0488 32.7998 56.9628 33.0636 56.9628C33.4153 56.9628 33.5911 57.0488 33.767 57.1349C33.9429 57.2209 34.0308 57.307 34.1187 57.393C34.2067 57.4791 34.2067 57.4791 34.2946 57.4791C34.3825 57.5651 34.5584 57.5651 34.6463 57.4791C34.6463 57.393 34.7342 57.393 34.7342 57.2209C34.7342 57.2209 34.7342 57.1349 34.6463 57.0488C34.5584 56.9628 34.4704 56.8767 34.2946 56.7907C34.1187 56.7046 33.9429 56.6186 33.767 56.5326C33.3273 56.3605 32.7118 56.3605 32.2722 56.5326C32.0963 56.6186 31.9204 56.7046 31.7446 56.8767C31.5687 57.0488 31.4808 57.1349 31.3929 57.393C31.3049 57.5651 31.3049 57.8233 31.3049 57.9953C31.3049 58.2535 31.3929 58.5116 31.4808 58.6837C31.5687 58.8558 31.7446 59.0279 31.9204 59.114C32.0963 59.286 32.3601 59.3721 32.536 59.4581C32.7998 59.5442 32.9756 59.6302 33.2394 59.7163C33.5032 59.8023 33.6791 59.9744 33.8549 60.0605C34.0308 60.2326 34.1187 60.4907 34.1187 60.7488C34.1187 61.093 33.9429 61.3512 33.767 61.4372C33.4153 61.6953 32.7998 61.6953 32.2722 61.5233C32.0084 61.4372 31.8325 61.3512 31.7446 61.1791C31.6567 61.093 31.6567 61.093 31.5687 61.007C31.5687 60.9209 31.4808 60.9209 31.3929 60.9209Z" fill="white"/>
<path fill-rule="evenodd" clip-rule="evenodd" d="M36.668 56.5324C36.668 56.4463 36.7559 56.3603 36.8438 56.1882C36.9318 56.1022 37.1076 56.0161 37.2835 56.0161C37.4593 56.0161 37.5473 56.1022 37.6352 56.1882C37.7231 56.2743 37.8111 56.3603 37.8111 56.5324V61.8673C37.8111 61.9533 37.7231 62.0394 37.6352 62.2115C37.5473 62.2975 37.3714 62.3836 37.2835 62.3836C37.1076 62.3836 36.9318 62.2975 36.8438 62.2115C36.7559 62.1254 36.668 62.0394 36.668 61.8673V56.5324Z" fill="white"/>
<path d="M37.2836 62.4697C37.0198 62.4697 36.8439 62.3837 36.756 62.2976C36.5801 62.1256 36.4922 62.0395 36.4922 61.8674V56.5325C36.4922 56.3604 36.5801 56.1883 36.756 56.1023C37.0198 55.8442 37.5474 55.8442 37.8991 56.1023C38.0749 56.2744 38.1629 56.3604 38.1629 56.5325V61.8674C38.1629 62.0395 38.0749 62.2116 37.8991 62.2976C37.6353 62.4697 37.4594 62.4697 37.2836 62.4697ZM37.2836 56.3604C37.1956 56.3604 37.1077 56.3604 37.0198 56.4465C36.9318 56.4465 36.9318 56.5325 36.9318 56.5325V61.8674C36.9318 61.8674 36.9318 61.9535 37.0198 62.0395C37.1077 62.1256 37.3715 62.1256 37.5474 62.0395C37.6353 61.9535 37.6353 61.9535 37.6353 61.8674V56.5325C37.6353 56.5325 37.6353 56.4465 37.5474 56.3604C37.4594 56.3604 37.3715 56.3604 37.2836 56.3604Z" fill="white"/>
<path fill-rule="evenodd" clip-rule="evenodd" d="M41.8545 59.5439C41.8545 59.3718 41.9425 59.2858 42.0304 59.1997C42.1183 59.1137 42.2063 59.0276 42.3821 59.0276H43.5252C43.7011 59.0276 43.8769 59.0276 43.9649 59.1137C44.0528 59.1997 44.1407 59.2858 44.1407 59.4579V61.2649C44.0528 61.3509 43.9649 61.523 43.8769 61.609C43.789 61.6951 43.6131 61.7811 43.4373 61.9532C43.2614 62.0393 43.0856 62.1253 42.9097 62.1253C42.7338 62.2114 42.47 62.2114 42.1183 62.2114C41.6787 62.2114 41.3269 62.1253 41.0631 62.0393C40.7994 61.9532 40.5356 61.7811 40.2718 61.523C40.0959 61.3509 39.92 61.0928 39.8321 60.8346C39.7442 60.5765 39.6562 60.2323 39.6562 59.9742V58.3393C39.6562 57.9951 39.7442 57.7369 39.8321 57.4788C39.92 57.2207 40.0959 56.9625 40.2718 56.7904C40.4476 56.6183 40.7114 56.4462 41.0631 56.2741C41.3269 56.1881 41.6787 56.1021 42.1183 56.1021C42.47 56.1021 42.8218 56.1881 43.0856 56.2741C43.3494 56.3602 43.6131 56.5323 43.7011 56.6183C43.789 56.7044 43.8769 56.8765 43.8769 56.9625C43.8769 57.0486 43.789 57.2207 43.789 57.2207C43.7011 57.3067 43.6131 57.3067 43.4373 57.3928C43.2614 57.3928 43.1735 57.3927 42.9976 57.3067C42.9097 57.2207 42.7338 57.2207 42.558 57.1346C42.3821 57.1346 42.2062 57.0486 42.0304 57.0486C41.6787 57.0486 41.3269 57.1346 41.1511 57.3067C40.8873 57.4788 40.7994 57.823 40.7994 58.2532V60.0602C40.7994 60.2323 40.7994 60.4904 40.8873 60.5765C40.9752 60.7486 41.0631 60.8346 41.1511 60.9207C41.239 61.0067 41.4149 61.0928 41.5907 61.1788C41.7666 61.2649 41.9425 61.2649 42.1183 61.2649C42.2942 61.2649 42.47 61.2649 42.558 61.2649C42.6459 61.2649 42.7338 61.1788 42.9097 61.1788L43.0856 61.0928V60.0602H42.47C42.2942 60.0602 42.2062 59.9742 42.1183 59.8881C41.9425 59.8021 41.8545 59.716 41.8545 59.5439Z" fill="white"/>
<path d="M42.0305 62.5556C41.5909 62.5556 41.2392 62.4695 40.8874 62.3835C40.5357 62.2974 40.2719 62.0393 40.0081 61.8672C39.7443 61.6091 39.5685 61.3509 39.4805 61.0928C39.3926 60.7486 39.3047 60.4905 39.3047 60.1463V58.5114C39.3047 58.1672 39.3926 57.823 39.4805 57.5649C39.5685 57.2207 39.7443 56.9625 40.0081 56.7905C40.2719 56.5323 40.5357 56.3602 40.7995 56.2742C41.415 56.016 42.2943 56.016 42.9978 56.2742C43.3495 56.3602 43.5254 56.5323 43.7012 56.7044C43.8771 56.8765 43.965 57.0486 43.965 57.2207C43.965 57.3928 43.8771 57.5649 43.7892 57.6509C43.7012 57.737 43.5254 57.823 43.3495 57.823H43.2616C43.0857 57.823 42.9099 57.737 42.734 57.6509C42.6461 57.5649 42.5581 57.5649 42.3823 57.4788C41.8547 57.3928 41.503 57.3928 41.1512 57.6509C40.9754 57.823 40.8874 58.0811 40.8874 58.4253V60.2323C40.8874 60.4044 40.8874 60.5765 40.9754 60.6625C41.0633 60.7486 41.0633 60.9207 41.2392 61.0067C41.3271 61.0928 41.415 61.1788 41.5909 61.1788C41.7668 61.1788 41.8547 61.2649 42.0305 61.2649C42.2064 61.2649 42.3823 61.2649 42.3823 61.2649C42.4702 61.2649 42.5581 61.1788 42.6461 61.1788H42.734V60.2323H42.3823C42.2064 60.2323 42.0306 60.1463 41.8547 60.0602C41.6788 59.9742 41.6788 59.716 41.6788 59.5439C41.6788 59.3718 41.7668 59.1998 41.8547 59.0277C41.9426 58.8556 42.1185 58.8556 42.3823 58.8556H43.5254C43.7892 58.8556 43.965 58.9416 44.053 59.0277C44.2288 59.1137 44.2288 59.2858 44.2288 59.5439V61.437V61.523C44.1409 61.6951 44.053 61.7812 43.965 61.9532C43.8771 62.1253 43.7012 62.2114 43.5254 62.2974C43.3495 62.3835 43.1737 62.4695 42.9099 62.5556C42.6461 62.4695 42.3823 62.5556 42.0305 62.5556ZM42.0305 56.3602C41.6788 56.3602 41.3271 56.4463 41.0633 56.5323C40.7995 56.6184 40.5357 56.7905 40.3599 56.9625C40.184 57.1346 40.0081 57.3928 39.9202 57.6509C39.8323 57.9091 39.7443 58.1672 39.7443 58.4253V60.0602C39.7443 60.3184 39.8323 60.5765 39.9202 60.8346C40.0081 61.0928 40.184 61.2649 40.3599 61.523C40.5357 61.6951 40.7995 61.8672 41.0633 61.9532C41.3271 62.0393 41.6788 62.1253 42.0305 62.1253C42.2943 62.1253 42.5581 62.1253 42.734 62.0393C42.9099 61.9532 43.0857 61.9532 43.2616 61.8672C43.4375 61.7812 43.5254 61.6951 43.6133 61.6091C43.7012 61.523 43.7892 61.437 43.7892 61.3509V59.5439C43.7892 59.4579 43.7892 59.3718 43.7012 59.3718C43.6133 59.3718 43.5254 59.2858 43.4374 59.2858H42.2943C42.2064 59.2858 42.1185 59.2858 42.1185 59.3718C42.0306 59.4579 42.0305 59.4579 42.0305 59.5439C42.0305 59.63 42.0306 59.716 42.1185 59.716C42.1185 59.716 42.2064 59.8021 42.2943 59.8021H43.0857V61.0928L42.8219 61.2649C42.6461 61.3509 42.5581 61.437 42.3823 61.437C42.1185 61.523 41.6788 61.523 41.3271 61.437C41.1512 61.3509 40.9754 61.2649 40.7995 61.1788C40.6237 61.0928 40.5357 60.9207 40.4478 60.7486C40.3599 60.5765 40.3599 60.4044 40.3599 60.1463V58.3393C40.3599 57.823 40.5357 57.4788 40.7995 57.2207C41.2392 56.8765 41.7668 56.7905 42.3823 56.9625C42.5581 57.0486 42.734 57.0486 42.9099 57.1346C42.9978 57.2207 43.0857 57.2207 43.1737 57.2207C43.2616 57.2207 43.3495 57.2207 43.4374 57.1346C43.4374 57.1346 43.5254 57.0486 43.5254 56.9625C43.5254 56.8765 43.5254 56.7905 43.4374 56.7905C43.3495 56.7044 43.0857 56.5323 42.9099 56.4463C42.6461 56.3602 42.3823 56.3602 42.0305 56.3602Z" fill="white"/>
<path fill-rule="evenodd" clip-rule="evenodd" d="M45.8984 56.5325C45.8984 56.4465 45.9864 56.3604 46.0743 56.1883C46.1622 56.1023 46.3381 56.0162 46.514 56.0162C46.6898 56.0162 46.7777 56.0162 46.8657 56.1023C46.9536 56.1883 47.0415 56.2744 47.0415 56.3604L49.5915 60.0604V56.4465C49.5915 56.3604 49.6795 56.2744 49.7674 56.1023C49.8553 56.0162 50.0312 55.9302 50.2071 55.9302C50.3829 55.9302 50.4709 56.0162 50.5588 56.1023C50.6467 56.1883 50.7346 56.2744 50.7346 56.4465V61.7813C50.7346 61.8674 50.6467 61.9534 50.5588 62.1255C50.4709 62.2116 50.295 62.2976 50.2071 62.2976C50.0312 62.2976 49.9433 62.2976 49.8553 62.2116C49.7674 62.1255 49.6795 62.1255 49.6795 62.0395V61.9534L47.1295 58.3395V61.8674C47.1295 61.9534 47.0415 62.0395 46.9536 62.2116C46.8657 62.2976 46.6898 62.3837 46.514 62.3837C46.3381 62.3837 46.1622 62.2976 46.0743 62.2116C45.9864 62.1255 45.8984 62.0395 45.8984 61.8674V56.5325Z" fill="white"/>
<path d="M50.1212 62.5558C49.9453 62.5558 49.7695 62.5558 49.6815 62.4697C49.5936 62.3837 49.4178 62.2977 49.4178 62.1256L47.2195 59.0279V61.8674C47.2195 62.0395 47.1315 62.2116 47.0436 62.2977C46.7798 62.5558 46.2522 62.5558 45.9005 62.2977C45.7247 62.1256 45.6367 61.9535 45.6367 61.8674V56.5325C45.6367 56.3604 45.7247 56.1883 45.9005 56.1023C46.1643 55.8442 46.6919 55.8442 46.9557 56.1023C47.0436 56.1883 47.1315 56.2744 47.2195 56.4465L49.4178 59.5442V56.6186C49.4178 56.4465 49.5057 56.2744 49.6815 56.1883C49.9453 55.9302 50.4729 55.9302 50.8247 56.1883C51.0005 56.3604 51.0005 56.4465 51.0005 56.6186V61.9535C51.0005 62.1256 50.9126 62.2976 50.8247 62.3837C50.5609 62.4697 50.385 62.5558 50.1212 62.5558ZM46.7798 57.6511L49.7695 61.9535C49.7695 62.0395 49.8574 62.0395 49.8574 62.1256C49.9453 62.2116 50.2091 62.2116 50.2971 62.1256C50.385 62.0395 50.385 62.0395 50.385 61.9535V56.6186C50.385 56.6186 50.385 56.5325 50.2971 56.4465C50.2971 56.4465 50.2091 56.3604 50.0333 56.3604C49.9453 56.3604 49.8574 56.3604 49.7695 56.4465C49.6815 56.5325 49.6815 56.5325 49.6815 56.6186V60.9209L46.6919 56.6186C46.6919 56.5325 46.604 56.5325 46.604 56.4465C46.4281 56.3604 46.2522 56.3604 46.0764 56.4465C45.9884 56.5325 45.9884 56.5325 45.9884 56.6186V61.9535C45.9884 61.9535 45.9884 62.0395 46.0764 62.1256C46.1643 62.2116 46.516 62.2116 46.604 62.1256C46.6919 62.0395 46.6919 62.0395 46.6919 61.9535V57.6511H46.7798Z" fill="white"/>
<path d="M12.3969 72.9674C12.3969 73.0535 12.3969 73.2256 12.3089 73.3116C12.221 73.3977 12.1331 73.4837 11.9572 73.5697C11.7814 73.5697 11.6934 73.5697 11.5176 73.5697C11.4296 73.4837 11.3417 73.3977 11.2538 73.3116L10.902 72.193H8.7917L8.43998 73.3116C8.43998 73.3977 8.35205 73.4837 8.17619 73.5697C8.08825 73.6558 7.91239 73.6558 7.73653 73.5697C7.56067 73.4837 7.47274 73.4837 7.38481 73.3116C7.29688 73.2256 7.29688 73.0535 7.29688 72.9674L9.14343 67.8046C9.14343 67.7186 9.23136 67.6325 9.31929 67.5465C9.40722 67.4604 9.58308 67.4604 9.75894 67.4604C9.93481 67.4604 10.0227 67.4604 10.1986 67.5465C10.2865 67.6325 10.3745 67.7186 10.4624 67.8046L12.3969 72.9674ZM9.23136 71.2465H10.7262L10.0227 68.9232L9.23136 71.2465Z" fill="white"/>
<path d="M8.09071 73.7417C8.00278 73.7417 7.91484 73.7417 7.91484 73.7417C7.65105 73.6557 7.56312 73.5697 7.38726 73.3976C7.2114 73.2255 7.29933 72.9673 7.29933 72.8813L9.14588 67.6324C9.23381 67.4603 9.32174 67.3743 9.40967 67.2882C9.67346 67.1162 10.2011 67.1162 10.4648 67.2882C10.6407 67.3743 10.7286 67.5464 10.7286 67.7185L12.5752 72.8813C12.6631 73.0534 12.5752 73.2255 12.4873 73.3976C12.3993 73.5697 12.2235 73.6557 11.9597 73.7417C11.7838 73.8278 11.52 73.7417 11.3442 73.6557C11.1683 73.5697 11.0804 73.3976 10.9924 73.3115L10.7286 72.365H8.97002L8.79415 73.3115C8.70622 73.4836 8.61829 73.5697 8.44243 73.6557C8.26657 73.7417 8.17864 73.7417 8.09071 73.7417ZM9.93726 67.6324C9.84933 67.6324 9.7614 67.6324 9.67346 67.7185C9.58553 67.8045 9.58553 67.8045 9.4976 67.8906L7.65105 73.1394C7.65105 73.1394 7.65105 73.2255 7.65105 73.3115C7.73898 73.3976 7.73898 73.3976 7.91484 73.4836C8.00278 73.4836 8.09071 73.4836 8.17864 73.4836C8.26657 73.3976 8.3545 73.3976 8.3545 73.3115L8.79415 72.1069H11.1683L11.52 73.3115C11.52 73.3115 11.52 73.3976 11.6079 73.3976C11.6959 73.3976 11.7838 73.4836 11.8717 73.3976C12.0476 73.3976 12.0476 73.3115 12.1355 73.2255C12.1355 73.1394 12.2235 73.1394 12.1355 73.0534L10.289 67.8906C10.289 67.8045 10.2011 67.8045 10.1131 67.7185C10.2011 67.6324 10.1131 67.6324 9.93726 67.6324ZM10.9924 71.4185H8.88209L9.93726 68.1487L10.9924 71.4185ZM9.4976 70.9883H10.3769L9.93726 69.6115L9.4976 70.9883Z" fill="white"/>
<path fill-rule="evenodd" clip-rule="evenodd" d="M15.6515 73.1397C15.6515 73.2258 15.5636 73.3118 15.4756 73.3978C15.3877 73.4839 15.2118 73.4839 15.036 73.4839C14.8601 73.4839 14.7722 73.4839 14.5963 73.3978C14.5084 73.3118 14.4204 73.2258 14.4204 73.1397L13.2773 67.9769C13.2773 67.8909 13.2773 67.7188 13.3653 67.6327C13.4532 67.5467 13.5411 67.4606 13.717 67.3746C13.8929 67.3746 13.9808 67.3746 14.1567 67.3746C14.2446 67.4606 14.3325 67.5467 14.4204 67.6327L15.1239 71.9351L16.1791 67.8048C16.267 67.4606 16.4429 67.3746 16.7946 67.3746C16.9704 67.3746 17.1463 67.3746 17.2342 67.4606C17.3222 67.5467 17.4101 67.6327 17.4101 67.8048L18.4653 71.9351L19.1687 67.6327C19.1687 67.5467 19.2567 67.4606 19.4325 67.3746C19.5204 67.2885 19.6963 67.2885 19.8722 67.3746C20.048 67.3746 20.136 67.4606 20.2239 67.6327C20.2239 67.7188 20.2239 67.8909 20.2239 67.9769L19.0808 73.1397C19.0808 73.2258 18.9929 73.3118 18.817 73.3978C18.7291 73.4839 18.5532 73.4839 18.3773 73.4839C18.2015 73.4839 18.1136 73.4839 17.9377 73.3978C17.8498 73.3118 17.7618 73.2258 17.7618 73.1397L16.7067 69.2676L15.6515 73.1397Z" fill="white"/>
<path d="M18.4654 73.8279C18.2895 73.8279 18.1136 73.7419 17.9378 73.6559C17.7619 73.5698 17.674 73.3977 17.674 73.2256L16.7947 70.1279L15.9154 73.2256C15.8274 73.3977 15.7395 73.4838 15.6516 73.6559C15.3878 73.828 14.8602 73.828 14.5964 73.6559C14.4205 73.5698 14.3326 73.3977 14.3326 73.2256L13.1016 67.9768C13.1016 67.8907 13.1016 67.7186 13.1895 67.4605C13.2774 67.2884 13.4533 67.2024 13.7171 67.1163C13.8929 67.0303 14.1567 67.1163 14.3326 67.2024C14.5085 67.2884 14.5964 67.4605 14.6843 67.5465L15.2119 70.8163L16.0033 67.7186C16.0912 67.2884 16.4429 67.1163 16.7947 67.1163C17.0585 67.1163 17.2343 67.2024 17.3223 67.2884C17.4102 67.3745 17.4981 67.5466 17.586 67.7186L18.3774 70.8163L18.905 67.5465C18.9929 67.3745 19.0809 67.2024 19.2567 67.1163C19.4326 67.0303 19.6085 67.0303 19.8723 67.0303C20.136 67.1163 20.224 67.2024 20.3998 67.3745C20.5757 67.5466 20.4878 67.8047 20.4878 67.8907L19.3447 73.0535C19.2567 73.2256 19.1688 73.3117 18.9929 73.4838C18.8171 73.7419 18.6412 73.8279 18.4654 73.8279ZM16.7067 68.4931L18.0257 73.1396C18.0257 73.2256 18.1136 73.2256 18.1136 73.3117C18.2895 73.3977 18.4654 73.3977 18.6412 73.3117C18.7291 73.2256 18.7291 73.2256 18.8171 73.1396L19.9602 67.9768C19.9602 67.8907 19.9602 67.8907 19.9602 67.8047C19.8723 67.7186 19.8723 67.7186 19.6964 67.6326C19.6085 67.6326 19.5205 67.6326 19.4326 67.6326C19.3447 67.7186 19.3447 67.7186 19.3447 67.7186L18.4654 72.9675L17.1464 67.8047C17.1464 67.7186 17.0585 67.6326 16.9705 67.5465C16.9705 67.5465 16.8826 67.4605 16.7067 67.4605C16.5309 67.4605 16.4429 67.4605 16.355 67.8047L15.036 72.8814L14.1567 67.6326C14.1567 67.6326 14.1567 67.5465 14.0688 67.5465C13.9809 67.5465 13.8929 67.5465 13.805 67.5465C13.7171 67.5465 13.6291 67.6326 13.5412 67.7186C13.4533 67.8047 13.4533 67.8047 13.5412 67.8907L14.6843 73.1396C14.6843 73.1396 14.6843 73.2256 14.7723 73.3117C14.9481 73.3977 15.2119 73.3977 15.2998 73.3117C15.3878 73.2256 15.3878 73.2256 15.4757 73.1396L16.7067 68.4931Z" fill="white"/>
<path d="M26.0258 72.9674C26.0258 73.0535 26.0258 73.2256 25.9379 73.3116C25.8499 73.3977 25.762 73.4837 25.5861 73.5697C25.4103 73.5697 25.3223 73.5697 25.1465 73.5697C25.0585 73.4837 24.9706 73.3977 24.8827 73.3116L24.531 72.193H22.4206L22.0689 73.3116C22.0689 73.3977 21.981 73.4837 21.8051 73.5697C21.7172 73.6558 21.5413 73.6558 21.3654 73.5697C21.1896 73.4837 21.1016 73.4837 21.0137 73.3116C20.9258 73.2256 20.9258 73.0535 20.9258 72.9674L22.7723 67.8046C22.7723 67.7186 22.8603 67.6325 22.9482 67.5465C23.0361 67.4604 23.212 67.4604 23.3878 67.4604C23.5637 67.4604 23.6516 67.4604 23.8275 67.5465C23.9154 67.6325 24.0034 67.7186 24.0913 67.8046L26.0258 72.9674ZM22.7723 71.2465H24.2672L23.5637 68.9232L22.7723 71.2465Z" fill="white"/>
<path d="M21.6298 73.7417C21.5418 73.7417 21.4539 73.7417 21.4539 73.7417C21.1901 73.6557 21.0143 73.5697 20.9263 73.3976C20.7505 73.2255 20.8384 72.9673 20.8384 72.8813L22.6849 67.6324C22.7729 67.4603 22.8608 67.3743 22.9487 67.2882C23.2125 67.1162 23.7401 67.1162 24.0039 67.2882C24.1798 67.3743 24.2677 67.5464 24.2677 67.7185L26.1142 72.8813C26.2022 73.0534 26.1142 73.2255 26.0263 73.3976C25.9384 73.5697 25.7625 73.6557 25.4987 73.7417C25.3229 73.8278 25.0591 73.7417 24.8832 73.6557C24.6194 73.5697 24.5315 73.3976 24.5315 73.3115L24.2677 72.365H22.5091L22.2453 73.3115C22.1574 73.4836 22.0694 73.5697 21.8936 73.6557C21.8936 73.7417 21.7177 73.7417 21.6298 73.7417ZM23.5643 67.6324C23.4763 67.6324 23.3884 67.6324 23.3005 67.7185C23.2125 67.8045 23.2125 67.8045 23.1246 67.8906L21.278 73.1394C21.278 73.1394 21.278 73.2255 21.278 73.3115C21.366 73.3976 21.366 73.3976 21.5418 73.4836C21.6298 73.4836 21.7177 73.4836 21.8056 73.4836C21.8936 73.4836 21.8936 73.3976 21.9815 73.3115L22.4211 72.1069H24.7953L25.147 73.3115C25.147 73.3115 25.147 73.3976 25.2349 73.3976C25.3229 73.3976 25.4108 73.4836 25.4987 73.3976C25.5867 73.3976 25.6746 73.3115 25.7625 73.2255C25.7625 73.1394 25.8505 73.1394 25.7625 73.0534L23.916 67.8906C23.916 67.8045 23.828 67.8045 23.7401 67.7185C23.7401 67.6324 23.6522 67.6324 23.5643 67.6324ZM24.5315 71.4185H22.4211L23.4763 68.1487L24.5315 71.4185ZM23.0367 70.9883H23.916L23.4763 69.6115L23.0367 70.9883Z" fill="white"/>
<path d="M27.5235 67.8908C27.5235 67.8047 27.6114 67.7187 27.6994 67.5466C27.7873 67.4606 27.9632 67.3745 28.139 67.3745H29.458C29.8977 67.3745 30.2494 67.4606 30.5132 67.5466C30.777 67.6326 31.0408 67.7187 31.2166 67.8908C31.3925 68.0629 31.5683 68.235 31.6563 68.4931C31.7442 68.7513 31.7442 68.9234 31.7442 69.2675V69.3536C31.7442 69.6978 31.6563 69.9559 31.4804 70.214C31.3046 70.4722 31.0408 70.6443 30.689 70.7303L31.7442 72.8815C31.8321 72.9675 31.8321 73.0536 31.7442 73.2257C31.6563 73.3117 31.5683 73.4838 31.4804 73.5699C31.3046 73.6559 31.2166 73.6559 31.0408 73.6559C30.8649 73.6559 30.777 73.5699 30.777 73.4838L29.7218 71.2466C29.6339 71.2466 29.6339 71.2466 29.5459 71.2466H29.3701H28.5787V73.1396C28.5787 73.2257 28.4908 73.3117 28.4028 73.3978C28.3149 73.4838 28.139 73.4838 27.9632 73.4838C27.7873 73.4838 27.6114 73.3978 27.5235 73.3117C27.4356 73.2257 27.3477 73.1396 27.3477 72.9675V67.8908H27.5235ZM28.6666 68.4071V70.214H29.458C29.8977 70.214 30.1614 70.128 30.4252 69.9559C30.6011 69.7838 30.689 69.6117 30.689 69.4396V69.2675C30.689 69.0094 30.6011 68.7513 30.4252 68.6652C30.2494 68.4931 29.8977 68.4071 29.458 68.4071H28.6666Z" fill="white"/>
<path d="M31.3046 73.828C31.2167 73.828 31.2167 73.828 31.1288 73.828C30.9529 73.742 30.777 73.6559 30.6891 73.5699L29.6339 71.4187H28.8426V73.1396C28.8426 73.3117 28.7546 73.4838 28.5788 73.5699C28.315 73.828 27.7874 73.828 27.4357 73.5699C27.2598 73.3978 27.1719 73.2257 27.1719 73.1396V67.9768C27.1719 67.8047 27.2598 67.6327 27.4357 67.5466C27.6115 67.4606 27.7874 67.3745 27.9633 67.3745H29.2822C29.7219 67.3745 30.1615 67.4606 30.4253 67.5466C30.777 67.6327 31.0408 67.8047 31.2167 67.9768C31.3926 68.1489 31.5684 68.4071 31.6564 68.6652C31.7443 68.9234 31.8322 69.1815 31.8322 69.5257V69.6117C31.8322 69.9559 31.7443 70.3001 31.5684 70.5582C31.3926 70.8164 31.2167 70.9885 30.865 71.0745L31.8322 72.9675C31.9201 73.0536 32.0081 73.2257 31.8322 73.4838C31.7443 73.6559 31.6564 73.828 31.4805 73.914C31.5684 73.742 31.3926 73.828 31.3046 73.828ZM31.0408 73.3117C31.0408 73.3117 31.0408 73.3978 31.2167 73.3978C31.3046 73.3978 31.3926 73.3978 31.4805 73.3978C31.5684 73.3117 31.6564 73.3117 31.6564 73.2257C31.6564 73.1396 31.6564 73.1396 31.6564 73.1396L30.4253 70.7303L30.6891 70.6443C31.0408 70.5582 31.2167 70.3861 31.3926 70.214C31.4805 70.042 31.5684 69.7838 31.5684 69.5257V69.4396C31.5684 69.1815 31.5684 68.9233 31.4805 68.7513C31.3926 68.5792 31.3046 68.4071 31.1288 68.235C30.9529 68.0629 30.777 67.9768 30.5133 67.8908C30.2495 67.8047 29.8977 67.8047 29.4581 67.8047H28.1391C27.9633 67.8047 27.8753 67.8908 27.8753 67.8908C27.7874 67.9768 27.7874 67.9768 27.7874 68.0629V73.2257C27.7874 73.3117 27.7874 73.3117 27.8753 73.3978C27.8753 73.3978 27.9633 73.4838 28.1391 73.4838C28.227 73.4838 28.315 73.4838 28.4029 73.3978C28.4908 73.3117 28.4908 73.3117 28.4908 73.2257V70.9885H29.7219C29.8098 70.9885 29.8098 70.9885 29.8098 70.9885H29.9857L31.0408 73.3117ZM29.4581 70.4722H28.4029V68.235H29.4581C29.9857 68.235 30.3374 68.321 30.5133 68.4931C30.777 68.6652 30.865 68.9234 30.865 69.2675V69.4396C30.865 69.6978 30.777 69.9559 30.5133 70.128C30.3374 70.3861 29.9857 70.4722 29.4581 70.4722ZM28.8426 70.042H29.4581C29.8098 70.042 30.0736 69.9559 30.2495 69.8699C30.4253 69.7838 30.4253 69.6117 30.4253 69.5257V69.3536C30.4253 69.1815 30.3374 69.0094 30.2495 68.9233C30.0736 68.8373 29.8098 68.7513 29.4581 68.7513H28.8426V70.042Z" fill="white"/>
<path d="M33.4141 67.8908C33.4141 67.8047 33.502 67.6327 33.5899 67.5466C33.6779 67.4606 33.8537 67.3745 34.0296 67.3745H35.2606C35.7003 67.3745 36.052 67.4606 36.4037 67.5466C36.7554 67.7187 37.0192 67.8908 37.1951 68.0629C37.371 68.321 37.5468 68.5792 37.6348 68.8373C37.7227 69.1815 37.8106 69.4396 37.8106 69.8699V70.9024C37.8106 71.2466 37.7227 71.5908 37.6348 71.8489C37.5468 72.1071 37.371 72.3652 37.1951 72.6233C37.0192 72.8815 36.7554 73.0536 36.4037 73.1396C36.052 73.2257 35.7003 73.3117 35.2606 73.3117H34.0296C33.8537 73.3117 33.6779 73.2257 33.5899 73.1396C33.502 73.2257 33.4141 73.1396 33.4141 73.0536V67.8908ZM34.5572 68.4931V72.5373H35.2606C35.7003 72.5373 36.052 72.4513 36.3158 72.1931C36.5796 71.935 36.6675 71.6768 36.6675 71.2466V70.042C36.6675 69.6117 36.5796 69.2675 36.3158 69.0094C36.052 68.7513 35.7003 68.6652 35.2606 68.6652H34.5572V68.4931Z" fill="white"/>
<path d="M35.2588 73.656H34.0277C33.764 73.656 33.5881 73.57 33.4122 73.4839C33.2364 73.3979 33.1484 73.2258 33.1484 73.0537V67.8909C33.1484 67.7188 33.2364 67.5467 33.4122 67.4607C33.5881 67.3746 33.764 67.2886 33.9398 67.2886H35.1709C35.6105 67.2886 36.0502 67.3746 36.4019 67.5467C36.7536 67.7188 37.0174 67.8909 37.2812 68.149C37.545 68.4072 37.7209 68.6653 37.8088 69.0095C37.8967 69.3537 37.9846 69.6979 37.9846 70.0421V71.0746C37.9846 71.4188 37.8967 71.763 37.8088 72.1072C37.7209 72.4514 37.545 72.7095 37.2812 72.9676C37.0174 73.2258 36.7536 73.3979 36.4019 73.57C36.1381 73.656 35.6984 73.656 35.2588 73.656ZM34.0277 67.7188C33.9398 67.7188 33.8519 67.7188 33.764 67.8049C33.676 67.8909 33.676 67.8909 33.676 67.9769V73.1397C33.676 73.1397 33.676 73.2258 33.764 73.3118C33.8519 73.3979 33.9398 73.3979 34.0277 73.3979H35.2588C35.6984 73.3979 36.0502 73.3118 36.314 73.2258C36.5777 73.1397 36.8415 72.9676 37.0174 72.7956C37.1933 72.6235 37.3691 72.3653 37.4571 72.1072C37.545 71.849 37.6329 71.5049 37.6329 71.2467V70.2142C37.6329 69.87 37.545 69.6118 37.4571 69.2676C37.3691 69.0095 37.1933 68.7514 37.0174 68.5793C36.8415 68.4072 36.5777 68.2351 36.314 68.063C36.0502 67.9769 35.6984 67.8909 35.2588 67.8909H34.0277V67.7188ZM35.2588 72.7095H34.3795V68.2351H35.2588C35.7864 68.2351 36.1381 68.4072 36.4898 68.6653C36.7536 68.9235 36.9295 69.3537 36.9295 69.87V71.0746C36.9295 71.5909 36.7536 71.9351 36.4898 72.1932C36.1381 72.5374 35.7864 72.7095 35.2588 72.7095ZM34.8191 72.2793H35.2588C35.6105 72.2793 35.9622 72.1932 36.1381 72.0211C36.314 71.849 36.4019 71.5909 36.4019 71.1607V69.956C36.4019 69.5258 36.314 69.2676 36.0502 69.0095C35.8743 68.8374 35.5226 68.6653 35.1709 68.6653H34.7312V72.2793H34.8191Z" fill="white"/>
<path fill-rule="evenodd" clip-rule="evenodd" d="M41.4169 73.5696C41.329 73.5696 41.2411 73.5696 41.0652 73.5696C40.8894 73.5696 40.8014 73.4836 40.6256 73.4836C40.4497 73.3975 40.3618 73.3975 40.1859 73.3115C40.01 73.2254 39.9221 73.1394 39.7463 73.0534C39.6583 72.9673 39.5704 72.8813 39.4825 72.7952C39.3945 72.7092 39.3945 72.5371 39.3945 72.451C39.3945 72.1929 39.5704 72.0208 39.9221 72.0208C40.01 72.0208 40.098 72.0208 40.1859 72.1068C40.2738 72.1929 40.3618 72.1929 40.4497 72.2789C40.5376 72.365 40.7135 72.451 40.8894 72.5371C41.0652 72.6231 41.329 72.6231 41.5049 72.6231C41.7687 72.6231 41.9445 72.5371 42.1204 72.451C42.2963 72.365 42.3842 72.1929 42.3842 71.9348C42.3842 71.7627 42.2963 71.5906 42.2083 71.4185C42.0325 71.3324 41.8566 71.1603 41.6807 71.0743C41.5049 70.9882 41.2411 70.9022 40.9773 70.8162C40.7135 70.7301 40.5376 70.6441 40.2738 70.472C40.098 70.2999 39.9221 70.1278 39.7463 69.9557C39.5704 69.7836 39.5704 69.4394 39.5704 69.1813C39.5704 68.9231 39.6583 68.665 39.7463 68.4929C39.8342 68.3208 39.9221 68.0627 40.098 67.9766C40.2738 67.8045 40.4497 67.7185 40.7135 67.6324C40.9773 67.5464 41.2411 67.5464 41.5049 67.5464C41.8566 67.5464 42.1204 67.5464 42.3842 67.6324C42.648 67.7185 42.8238 67.8045 42.9997 67.8906C43.1756 67.9766 43.2635 68.1487 43.3514 68.2348C43.4394 68.3208 43.4394 68.4929 43.4394 68.5789C43.4394 68.751 43.4394 68.8371 43.3514 68.9231C43.2635 69.0092 43.1756 69.0952 42.9997 69.0952C42.9118 69.0952 42.8238 69.0952 42.7359 69.0092C42.648 68.9231 42.5601 68.9231 42.4721 68.8371C42.3842 68.751 42.2963 68.665 42.1204 68.665C41.9445 68.5789 41.7687 68.5789 41.5049 68.5789C41.2411 68.5789 41.0652 68.665 40.9773 68.751C40.8014 68.8371 40.7135 69.0092 40.7135 69.2673C40.7135 69.4394 40.8014 69.6115 40.8894 69.7836C41.0652 69.8696 41.2411 70.0417 41.4169 70.1278C41.5928 70.2138 41.8566 70.2999 42.1204 70.3859C42.3842 70.472 42.56 70.558 42.8238 70.7301C42.9997 70.9022 43.1756 71.0743 43.3514 71.2464C43.5273 71.4185 43.5273 71.7627 43.5273 72.1068C43.5273 72.6231 43.3514 73.0534 42.9997 73.3115C42.56 73.3975 42.0325 73.5696 41.4169 73.5696Z" fill="white"/>
<path d="M41.417 73.8278C41.3291 73.8278 41.1532 73.8278 41.0653 73.8278C40.8894 73.8278 40.8015 73.7417 40.6256 73.7417C40.4498 73.6557 40.2739 73.6557 40.186 73.5696C40.0101 73.4836 39.8343 73.3976 39.7463 73.3115C39.5705 73.2255 39.4825 73.1394 39.3946 72.9673C39.3067 72.7952 39.2188 72.6231 39.2188 72.451C39.2188 72.0208 39.4825 71.7627 39.9222 71.7627C40.0981 71.7627 40.186 71.8487 40.3619 71.8487C40.4498 71.9348 40.5377 71.9348 40.6256 72.0208C40.7136 72.1069 40.8894 72.1929 41.0653 72.279C41.417 72.451 41.8567 72.451 42.1205 72.279C42.1205 72.279 42.2963 72.1929 42.2963 71.9348C42.2963 71.7627 42.2084 71.6766 42.1205 71.5906C42.0325 71.5045 41.8567 71.4185 41.6808 71.2464C41.505 71.1603 41.2412 71.0743 40.9774 70.9883C40.7136 70.9022 40.4498 70.7301 40.2739 70.6441C40.0101 70.472 39.8343 70.2999 39.6584 70.0417C39.4825 69.7836 39.3946 69.5255 39.3946 69.0952C39.3946 68.8371 39.4825 68.5789 39.5705 68.3208C39.6584 68.0627 39.8343 67.8906 40.0101 67.7185C40.186 67.5464 40.4498 67.3743 40.7136 67.2882C41.2412 67.1162 42.0325 67.1162 42.5601 67.2882C42.8239 67.3743 42.9998 67.4603 43.2636 67.6324C43.4394 67.8045 43.6153 67.8906 43.7032 68.0627C43.7912 68.2348 43.8791 68.4069 43.8791 68.4929C43.8791 68.665 43.7912 68.8371 43.7032 69.0092C43.6153 69.1813 43.4394 69.2673 43.1757 69.2673C42.9998 69.2673 42.9119 69.2673 42.8239 69.1813C42.736 69.0952 42.6481 69.0952 42.5601 69.0092C42.4722 68.9231 42.3843 68.9231 42.2084 68.8371C42.1205 68.751 41.8567 68.751 41.6808 68.751C41.505 68.751 41.3291 68.751 41.2412 68.9231C41.1532 69.0092 41.0653 69.0952 41.0653 69.2673C41.0653 69.4394 41.0653 69.5255 41.2412 69.6115C41.3291 69.6976 41.505 69.7836 41.6808 69.8696C41.8567 69.9557 42.1205 70.0417 42.3843 70.1278C42.6481 70.2138 42.9119 70.3859 43.0877 70.472C43.3515 70.6441 43.5274 70.8162 43.7032 71.0743C43.8791 71.3324 43.967 71.6766 43.967 72.0208C43.967 72.6231 43.7912 73.0534 43.3515 73.3976C42.6481 73.6557 42.1205 73.8278 41.417 73.8278ZM39.8343 72.1929C39.5705 72.1929 39.5705 72.279 39.5705 72.451C39.5705 72.5371 39.5705 72.6231 39.6584 72.7092C39.7463 72.7952 39.8343 72.8813 39.9222 72.9673C40.0101 73.0534 40.186 73.1394 40.2739 73.1394C40.4498 73.2255 40.5377 73.2255 40.7136 73.3115C40.8894 73.3115 40.9774 73.3976 41.1532 73.3976C41.2412 73.3976 41.417 73.3976 41.505 73.3976C42.0325 73.3976 42.4722 73.2255 42.8239 72.9673C43.0877 72.7092 43.2636 72.365 43.2636 71.8487C43.2636 71.5906 43.1757 71.3324 43.0877 71.1603C42.9998 70.9883 42.8239 70.8162 42.6481 70.7301C42.4722 70.558 42.2084 70.472 42.0325 70.3859C41.7688 70.2999 41.5929 70.2138 41.3291 70.1278C41.0653 70.0417 40.8894 69.8696 40.8015 69.7836C40.6256 69.6115 40.5377 69.4394 40.5377 69.1813C40.5377 68.8371 40.7136 68.5789 40.8015 68.4929C40.9774 68.3208 41.2412 68.2348 41.505 68.2348C41.7688 68.2348 42.0325 68.3208 42.2084 68.4069C42.3843 68.4929 42.4722 68.5789 42.5601 68.665C42.6481 68.751 42.6481 68.751 42.736 68.751C42.8239 68.751 42.8239 68.751 42.9119 68.751C42.9998 68.751 43.0877 68.751 43.0877 68.665C43.0877 68.5789 43.1757 68.5789 43.1757 68.4069C43.1757 68.4069 43.1757 68.3208 43.0877 68.2348C42.9998 68.1487 42.9119 68.0627 42.736 67.9766C42.5601 67.8906 42.3843 67.8045 42.2084 67.7185C41.7688 67.5464 41.1532 67.5464 40.7136 67.7185C40.5377 67.8045 40.3619 67.8906 40.186 68.0627C40.0101 68.2348 39.9222 68.3208 39.8343 68.5789C39.7463 68.751 39.7463 69.0092 39.7463 69.1813C39.7463 69.4394 39.8343 69.6976 39.9222 69.8696C40.0101 70.0417 40.186 70.2138 40.3619 70.2999C40.5377 70.472 40.8015 70.558 40.9774 70.6441C41.2412 70.7301 41.417 70.8162 41.6808 70.9022C41.9446 70.9883 42.1205 71.1603 42.2963 71.2464C42.4722 71.4185 42.5601 71.6766 42.5601 71.9348C42.5601 72.2789 42.4722 72.451 42.2084 72.6231C41.8567 72.8813 41.2412 72.8813 40.7136 72.7092C40.4498 72.6231 40.2739 72.5371 40.186 72.365C40.0981 72.279 40.0981 72.279 40.0101 72.1929C40.0101 72.1929 39.9222 72.1929 39.8343 72.1929Z" fill="white"/>
<path fill-rule="evenodd" clip-rule="evenodd" d="M31.8309 30.7186L16.0912 15.3163L31.8309 0H16.0912L0.351562 15.3163L8.17742 23.0605L16.0912 30.7186L24.005 38.3767L31.8309 30.7186Z" fill="white"/>
<path fill-rule="evenodd" clip-rule="evenodd" d="M42.9991 23.0604L35.1732 15.4023L27.2595 7.74414L19.5215 15.4023L35.1732 30.7186L19.4336 46.1209H35.1732L42.9991 38.4627L50.9129 30.8046L42.9991 23.0604Z" fill="white"/>
</svg>
